<?xml version="1.0" encoding="UTF-8"?>
<svg id="Layer_2" data-name="Layer 2" xmlns="http://www.w3.org/2000/svg" viewBox="0 0 1437.25 959.69">
  <defs>
    <style>
      .cls-1 {
        fill: #222;
      }

      .cls-1, .cls-2, .cls-3, .cls-4, .cls-5 {
        stroke-width: 0px;
      }

      .cls-6 {
        fill: #999;
      }

      .cls-6, .cls-7 {
        font-size: 13px;
      }

      .cls-6, .cls-8, .cls-9 {
        font-family: CascadiaCode-Italic, 'Cascadia Code';
        font-style: italic;
        font-variation-settings: 'wght' 400;
      }

      .cls-10 {
        fill: #fff;
      }

      .cls-10, .cls-7, .cls-11 {
        font-family: CascadiaCode-Regular, 'Cascadia Code';
      }

      .cls-10, .cls-8, .cls-9 {
        font-size: 14px;
      }

      .cls-7, .cls-5, .cls-11 {
        fill: #d7d7d9;
      }

      .cls-2 {
        fill: #fec311;
      }

      .cls-3 {
        fill: #3f3f3f;
      }

      .cls-4 {
        fill: #666;
      }

      .cls-12 {
        fill: none;
        stroke: #111;
        stroke-width: 2px;
      }

      .cls-11 {
        font-size: 29.33px;
        stroke: #d7d7d9;
      }

      .cls-8 {
        isolation: isolate;
      }

      .cls-8, .cls-9 {
        fill: #000;
      }
    </style>
  </defs>
  <g id="Layer_1-2" data-name="Layer 1">
    <path class="cls-2" d="M1407.25,959.69H30c-16.57,0-30-13.43-30-30V67.41h1437.25v862.28c0,16.57-13.43,30-30,30Z"/>
    <path class="cls-1" d="M30,0h1377.25c16.56,0,30,13.44,30,30v37.41H0V30C0,13.44,13.44,0,30,0Z"/>
    <text class="cls-11" transform="translate(460.82 42.32)"><tspan x="0" y="0">Cargo - DATABASE DESIGN SCHEMA</tspan></text>
    <path class="cls-12" d="M981.47,407.45h10c6.67,0,10,3.33,10,10v156.45c0,6.67,3.33,10,10,10h37.62-37.62c-6.67,0-10-3.33-10-10v-156.45c0-6.67-3.33-10-10-10h-10ZM991.47,403.45v8M1049.09,579.89l-10,4,10,4"/>
    <text class="cls-8" transform="translate(1038.38 575.89)"><tspan x="0" y="0">*</tspan></text>
    <path class="cls-12" d="M748.07,407.45h-32.36c-6.67,0-10,3.33-10,10v377.23c0,6.67-3.33,10-10,10h-32.36,32.36c6.67,0,10-3.33,10-10v-377.23c0-6.67,3.33-10,10-10h32.36ZM738.07,403.45v8M663.35,800.68l10,4-10,4"/>
    <text class="cls-8" transform="translate(737.36 399.45)"><tspan x="0" y="0">1</tspan></text>
    <text class="cls-8" transform="translate(666.35 796.68)"><tspan x="0" y="0">*</tspan></text>
    <path class="cls-12" d="M981.47,407.45h10c6.67,0,10-3.33,10-10v-86.2c0-.9-.45-1.36-1.36-1.36h-21.36,21.36c.9,0,1.36.45,1.36,1.36v86.2c0,6.67-3.33,10-10,10h-10ZM991.47,403.45v8M978.76,305.89l10,4-10,4"/>
    <text class="cls-8" transform="translate(1006.48 410.83)"><tspan x="0" y="0">1</tspan></text>
    <text class="cls-8" transform="translate(981.76 301.89)"><tspan x="0" y="0">*</tspan></text>
    <path class="cls-12" d="M324.39,181.89h27.41c4.94,0,7.41,2.47,7.41,7.41v294.39c0,6.35-3.18,9.53-9.53,9.53h-29.53,29.53c6.35,0,9.53-3.18,9.53-9.53V189.3c0-4.94-2.47-7.41-7.41-7.41h-27.41ZM334.39,177.89v8M320.14,489.22l10,4-10,4"/>
    <text class="cls-9" transform="translate(334.39 172.14)"><tspan x="0" y="0">1</tspan></text>
    <text class="cls-8" transform="translate(323.14 485.22)"><tspan x="0" y="0">*</tspan></text>
    <path class="cls-12" d="M454.59,181.89h-50.48c-6.67,0-10,3.33-10,10v323.33c0,6.67-3.33,10-10,10h-63.96,63.96c6.67,0,10-3.33,10-10V191.89c0-6.67,3.33-10,10-10h50.48ZM444.59,177.89v8M320.14,521.22l10,4-10,4"/>
    <text class="cls-8" transform="translate(443.88 173.89)"><tspan x="0" y="0">1</tspan></text>
    <text class="cls-8" transform="translate(323.14 517.22)"><tspan x="0" y="0">*</tspan></text>
    <path class="cls-12" d="M748.07,407.45h-164.25c-6.67,0-10,3.33-10,10v129.77c0,6.67-3.33,10-10,10h-243.67,243.67c6.67,0,10-3.33,10-10v-129.77c0-6.67,3.33-10,10-10h164.25ZM738.07,403.45v8M320.14,553.22l10,4-10,4"/>
    <text class="cls-8" transform="translate(737.36 399.45)"><tspan x="0" y="0">1</tspan></text>
    <text class="cls-8" transform="translate(323.14 549.22)"><tspan x="0" y="0">*</tspan></text>
    <path class="cls-12" d="M748.07,407.45h-164.25c-6.67,0-10,3.33-10,10v161.77c0,6.67-3.33,10-10,10h-243.67,243.67c6.67,0,10-3.33,10-10v-161.77c0-6.67,3.33-10,10-10h164.25ZM738.07,403.45v8M320.14,585.22l10,4-10,4"/>
    <text class="cls-8" transform="translate(737.36 399.45)"><tspan x="0" y="0">1</tspan></text>
    <text class="cls-8" transform="translate(323.14 581.22)"><tspan x="0" y="0">*</tspan></text>
    <path class="cls-12" d="M1131.56,692.68h40.34c6.67,0,10,3.33,10,10v141.72c0,6.67-3.33,10-10,10H398.06c-6.67,0-10-3.33-10-10v-213.19c0-6.67-3.33-10-10-10h-57.92,57.92c6.67,0,10,3.33,10,10v213.19c0,6.67,3.33,10,10,10h773.84c6.67,0,10-3.33,10-10v-141.72c0-6.67-3.33-10-10-10h-40.34ZM1141.56,688.68v8M320.14,617.22l10,4-10,4"/>
    <text class="cls-8" transform="translate(1134.56 684.68)"><tspan x="0" y="0">1</tspan></text>
    <text class="cls-8" transform="translate(323.14 613.22)"><tspan x="0" y="0">*</tspan></text>
    <path class="cls-12" d="M1308.66,181.89h40.02c6.67,0,10,3.33,10,10v684.87c0,6.67-3.33,10-10,10H365.3c-6.67,0-10-3.33-10-10v-183.96c0-5.05-2.53-7.58-7.58-7.58h-27.58,27.58c5.05,0,7.58,2.53,7.58,7.58v183.96c0,6.67,3.33,10,10,10h983.38c6.67,0,10-3.33,10-10V191.89c0-6.67-3.33-10-10-10h-40.02ZM1318.66,177.89v8M320.14,681.22l10,4-10,4"/>
    <text class="cls-8" transform="translate(1311.66 173.89)"><tspan x="0" y="0">1</tspan></text>
    <text class="cls-8" transform="translate(323.14 677.22)"><tspan x="0" y="0">*</tspan></text>
    <rect class="cls-1" x="91" y="133.89" width="233.4" height="32"/>
    <text class="cls-10" transform="translate(101 153.14)"><tspan x="0" y="0">Customers</tspan></text>
    <rect class="cls-3" x="91" y="165.89" width="233.4" height="32"/>
    <text class="cls-7" transform="translate(101 185.14)"><tspan x="0" y="0">CustomerID</tspan></text>
    <path class="cls-5" d="M188.82,176.13c1.63,0,2.95,1.32,2.95,2.95s-1.32,2.95-2.95,2.95c-.39,0-.76-.08-1.1-.21l-.87.87h-.66v.98h-.98v.98h-1.97v-1.97l2.75-2.75c-.08-.28-.13-.57-.13-.86,0-1.63,1.32-2.95,2.95-2.95ZM188.82,175.14c-2.17,0-3.94,1.76-3.94,3.94,0,.18.01.36.04.54l-2.52,2.52c-.09.09-.14.22-.14.35v2.66c0,.27.22.49.49.49h2.95c.27,0,.49-.22.49-.49v-.49h.49c.27,0,.49-.22.49-.49v-.41l.82-.82c.27.06.54.09.82.09,2.17,0,3.94-1.76,3.94-3.94s-1.76-3.94-3.94-3.94ZM188.82,178.09c0,.54.44.98.98.98s.98-.44.98-.98-.44-.98-.98-.98-.98.44-.98.98Z"/>
    <text class="cls-6" transform="translate(255.43 185.14)"><tspan x="0" y="0">INTEGER</tspan></text>
    <rect class="cls-3" x="91" y="197.89" width="233.4" height="32"/>
    <text class="cls-7" transform="translate(101 217.14)"><tspan x="0" y="0">Name</tspan></text>
    <path class="cls-4" d="M292.39,204.39h20s2,0,2,2v12s0,2-2,2h-20s-2,0-2-2v-12s0-2,2-2"/>
    <path class="cls-5" d="M301.2,216.89h-1.17l-4.75-7.56h-.05c.01.2.03.43.04.69.02.25.03.53.04.82.01.29.02.58.02.88v5.17h-.94v-9h1.16l4.73,7.53h.04c0-.14-.02-.35-.03-.61-.01-.27-.02-.55-.04-.86,0-.31-.01-.59-.01-.86v-5.21h.95v9Z"/>
    <path class="cls-5" d="M310.39,216.89h-1.17l-4.75-7.56h-.05c.01.2.03.43.04.69.02.25.03.53.04.82.01.29.02.58.02.88v5.17h-.94v-9h1.16l4.73,7.53h.04c0-.14-.02-.35-.03-.61-.01-.27-.02-.55-.04-.86,0-.31-.01-.59-.01-.86v-5.21h.95v9Z"/>
    <text class="cls-6" transform="translate(253.34 217.14)"><tspan x="0" y="0">TEXT</tspan></text>
    <rect class="cls-3" x="91" y="229.89" width="233.4" height="32"/>
    <text class="cls-7" transform="translate(101 249.14)"><tspan x="0" y="0">Address</tspan></text>
    <path class="cls-4" d="M292.39,236.39h20s2,0,2,2v12s0,2-2,2h-20s-2,0-2-2v-12s0-2,2-2"/>
    <path class="cls-5" d="M301.2,248.89h-1.17l-4.75-7.56h-.05c.01.2.03.43.04.69.02.25.03.53.04.82.01.29.02.58.02.88v5.17h-.94v-9h1.16l4.73,7.53h.04c0-.14-.02-.35-.03-.61-.01-.27-.02-.55-.04-.86,0-.31-.01-.59-.01-.86v-5.21h.95v9Z"/>
    <path class="cls-5" d="M310.39,248.89h-1.17l-4.75-7.56h-.05c.01.2.03.43.04.69.02.25.03.53.04.82.01.29.02.58.02.88v5.17h-.94v-9h1.16l4.73,7.53h.04c0-.14-.02-.35-.03-.61-.01-.27-.02-.55-.04-.86,0-.31-.01-.59-.01-.86v-5.21h.95v9Z"/>
    <text class="cls-6" transform="translate(253.34 249.14)"><tspan x="0" y="0">TEXT</tspan></text>
    <rect class="cls-3" x="91" y="261.89" width="233.4" height="32"/>
    <text class="cls-7" transform="translate(101 281.14)"><tspan x="0" y="0">State</tspan></text>
    <path class="cls-4" d="M292.39,268.39h20s2,0,2,2v12s0,2-2,2h-20s-2,0-2-2v-12s0-2,2-2"/>
    <path class="cls-5" d="M301.2,280.89h-1.17l-4.75-7.56h-.05c.01.2.03.43.04.69.02.25.03.53.04.82.01.29.02.58.02.88v5.17h-.94v-9h1.16l4.73,7.53h.04c0-.14-.02-.35-.03-.61-.01-.27-.02-.55-.04-.86,0-.31-.01-.59-.01-.86v-5.21h.95v9Z"/>
    <path class="cls-5" d="M310.39,280.89h-1.17l-4.75-7.56h-.05c.01.2.03.43.04.69.02.25.03.53.04.82.01.29.02.58.02.88v5.17h-.94v-9h1.16l4.73,7.53h.04c0-.14-.02-.35-.03-.61-.01-.27-.02-.55-.04-.86,0-.31-.01-.59-.01-.86v-5.21h.95v9Z"/>
    <text class="cls-6" transform="translate(253.34 281.14)"><tspan x="0" y="0">TEXT</tspan></text>
    <rect class="cls-3" x="91" y="293.89" width="233.4" height="32"/>
    <text class="cls-7" transform="translate(101 313.14)"><tspan x="0" y="0">PIN</tspan></text>
    <path class="cls-4" d="M292.39,300.39h20s2,0,2,2v12s0,2-2,2h-20s-2,0-2-2v-12s0-2,2-2"/>
    <path class="cls-5" d="M301.2,312.89h-1.17l-4.75-7.56h-.05c.01.2.03.43.04.69.02.25.03.53.04.82.01.29.02.58.02.88v5.17h-.94v-9h1.16l4.73,7.53h.04c0-.14-.02-.35-.03-.61-.01-.27-.02-.55-.04-.86,0-.31-.01-.59-.01-.86v-5.21h.95v9Z"/>
    <path class="cls-5" d="M310.39,312.89h-1.17l-4.75-7.56h-.05c.01.2.03.43.04.69.02.25.03.53.04.82.01.29.02.58.02.88v5.17h-.94v-9h1.16l4.73,7.53h.04c0-.14-.02-.35-.03-.61-.01-.27-.02-.55-.04-.86,0-.31-.01-.59-.01-.86v-5.21h.95v9Z"/>
    <text class="cls-6" transform="translate(261.81 313.14)"><tspan x="0" y="0">INT</tspan></text>
    <rect class="cls-3" x="91" y="325.89" width="233.4" height="32"/>
    <text class="cls-7" transform="translate(101 345.14)"><tspan x="0" y="0">ContactNumber</tspan></text>
    <path class="cls-4" d="M292.39,332.39h20s2,0,2,2v12s0,2-2,2h-20s-2,0-2-2v-12s0-2,2-2"/>
    <path class="cls-5" d="M301.2,344.89h-1.17l-4.75-7.56h-.05c.01.2.03.43.04.69.02.25.03.53.04.82.01.29.02.58.02.88v5.17h-.94v-9h1.16l4.73,7.53h.04c0-.14-.02-.35-.03-.61-.01-.27-.02-.55-.04-.86,0-.31-.01-.59-.01-.86v-5.21h.95v9Z"/>
    <path class="cls-5" d="M310.39,344.89h-1.17l-4.75-7.56h-.05c.01.2.03.43.04.69.02.25.03.53.04.82.01.29.02.58.02.88v5.17h-.94v-9h1.16l4.73,7.53h.04c0-.14-.02-.35-.03-.61-.01-.27-.02-.55-.04-.86,0-.31-.01-.59-.01-.86v-5.21h.95v9Z"/>
    <text class="cls-6" transform="translate(253.34 345.14)"><tspan x="0" y="0">TEXT</tspan></text>
    <rect class="cls-1" x="454.59" y="133.89" width="233.4" height="32"/>
    <text class="cls-10" transform="translate(464.59 153.14)"><tspan x="0" y="0">Sellers</tspan></text>
    <rect class="cls-3" x="454.59" y="165.89" width="233.4" height="32"/>
    <text class="cls-7" transform="translate(464.59 185.14)"><tspan x="0" y="0">SellerID</tspan></text>
    <path class="cls-5" d="M534.95,176.13c1.63,0,2.95,1.32,2.95,2.95s-1.32,2.95-2.95,2.95c-.39,0-.76-.08-1.1-.21l-.87.87h-.66v.98h-.98v.98h-1.97v-1.97l2.75-2.75c-.08-.28-.13-.57-.13-.86,0-1.63,1.32-2.95,2.95-2.95ZM534.95,175.14c-2.17,0-3.94,1.76-3.94,3.94,0,.18.01.36.04.54l-2.52,2.52c-.09.09-.14.22-.14.35v2.66c0,.27.22.49.49.49h2.95c.27,0,.49-.22.49-.49v-.49h.49c.27,0,.49-.22.49-.49v-.41l.82-.82c.27.06.54.09.82.09,2.17,0,3.94-1.76,3.94-3.94s-1.76-3.94-3.94-3.94ZM534.95,178.09c0,.54.44.98.98.98s.98-.44.98-.98-.44-.98-.98-.98-.98.44-.98.98Z"/>
    <text class="cls-6" transform="translate(619.02 185.14)"><tspan x="0" y="0">INTEGER</tspan></text>
    <rect class="cls-3" x="454.59" y="197.89" width="233.4" height="32"/>
    <text class="cls-7" transform="translate(464.59 217.14)"><tspan x="0" y="0">Name</tspan></text>
    <path class="cls-4" d="M655.98,204.39h20s2,0,2,2v12s0,2-2,2h-20s-2,0-2-2v-12s0-2,2-2"/>
    <path class="cls-5" d="M664.79,216.89h-1.17l-4.75-7.56h-.05c.01.2.03.43.04.69.02.25.03.53.04.82.01.29.02.58.02.88v5.17h-.94v-9h1.16l4.73,7.53h.04c0-.14-.02-.35-.03-.61-.01-.27-.02-.55-.04-.86,0-.31-.01-.59-.01-.86v-5.21h.95v9Z"/>
    <path class="cls-5" d="M673.98,216.89h-1.17l-4.75-7.56h-.05c.01.2.03.43.04.69.02.25.03.53.04.82.01.29.02.58.02.88v5.17h-.94v-9h1.16l4.73,7.53h.04c0-.14-.02-.35-.03-.61-.01-.27-.02-.55-.04-.86,0-.31-.01-.59-.01-.86v-5.21h.95v9Z"/>
    <text class="cls-6" transform="translate(616.93 217.14)"><tspan x="0" y="0">TEXT</tspan></text>
    <rect class="cls-3" x="454.59" y="229.89" width="233.4" height="32"/>
    <text class="cls-7" transform="translate(464.59 249.14)"><tspan x="0" y="0">Address</tspan></text>
    <path class="cls-4" d="M655.98,236.39h20s2,0,2,2v12s0,2-2,2h-20s-2,0-2-2v-12s0-2,2-2"/>
    <path class="cls-5" d="M664.79,248.89h-1.17l-4.75-7.56h-.05c.01.2.03.43.04.69.02.25.03.53.04.82.01.29.02.58.02.88v5.17h-.94v-9h1.16l4.73,7.53h.04c0-.14-.02-.35-.03-.61-.01-.27-.02-.55-.04-.86,0-.31-.01-.59-.01-.86v-5.21h.95v9Z"/>
    <path class="cls-5" d="M673.98,248.89h-1.17l-4.75-7.56h-.05c.01.2.03.43.04.69.02.25.03.53.04.82.01.29.02.58.02.88v5.17h-.94v-9h1.16l4.73,7.53h.04c0-.14-.02-.35-.03-.61-.01-.27-.02-.55-.04-.86,0-.31-.01-.59-.01-.86v-5.21h.95v9Z"/>
    <text class="cls-6" transform="translate(616.93 249.14)"><tspan x="0" y="0">TEXT</tspan></text>
    <rect class="cls-3" x="454.59" y="261.89" width="233.4" height="32"/>
    <text class="cls-7" transform="translate(464.59 281.14)"><tspan x="0" y="0">State</tspan></text>
    <path class="cls-4" d="M655.98,268.39h20s2,0,2,2v12s0,2-2,2h-20s-2,0-2-2v-12s0-2,2-2"/>
    <path class="cls-5" d="M664.79,280.89h-1.17l-4.75-7.56h-.05c.01.2.03.43.04.69.02.25.03.53.04.82.01.29.02.58.02.88v5.17h-.94v-9h1.16l4.73,7.53h.04c0-.14-.02-.35-.03-.61-.01-.27-.02-.55-.04-.86,0-.31-.01-.59-.01-.86v-5.21h.95v9Z"/>
    <path class="cls-5" d="M673.98,280.89h-1.17l-4.75-7.56h-.05c.01.2.03.43.04.69.02.25.03.53.04.82.01.29.02.58.02.88v5.17h-.94v-9h1.16l4.73,7.53h.04c0-.14-.02-.35-.03-.61-.01-.27-.02-.55-.04-.86,0-.31-.01-.59-.01-.86v-5.21h.95v9Z"/>
    <text class="cls-6" transform="translate(616.93 281.14)"><tspan x="0" y="0">TEXT</tspan></text>
    <rect class="cls-3" x="454.59" y="293.89" width="233.4" height="32"/>
    <text class="cls-7" transform="translate(464.59 313.14)"><tspan x="0" y="0">PIN</tspan></text>
    <path class="cls-4" d="M655.98,300.39h20s2,0,2,2v12s0,2-2,2h-20s-2,0-2-2v-12s0-2,2-2"/>
    <path class="cls-5" d="M664.79,312.89h-1.17l-4.75-7.56h-.05c.01.2.03.43.04.69.02.25.03.53.04.82.01.29.02.58.02.88v5.17h-.94v-9h1.16l4.73,7.53h.04c0-.14-.02-.35-.03-.61-.01-.27-.02-.55-.04-.86,0-.31-.01-.59-.01-.86v-5.21h.95v9Z"/>
    <path class="cls-5" d="M673.98,312.89h-1.17l-4.75-7.56h-.05c.01.2.03.43.04.69.02.25.03.53.04.82.01.29.02.58.02.88v5.17h-.94v-9h1.16l4.73,7.53h.04c0-.14-.02-.35-.03-.61-.01-.27-.02-.55-.04-.86,0-.31-.01-.59-.01-.86v-5.21h.95v9Z"/>
    <text class="cls-6" transform="translate(616.93 313.14)"><tspan x="0" y="0">TEXT</tspan></text>
    <rect class="cls-3" x="454.59" y="325.89" width="233.4" height="32"/>
    <text class="cls-7" transform="translate(464.59 345.14)"><tspan x="0" y="0">ContactNumber</tspan></text>
    <path class="cls-4" d="M655.98,332.39h20s2,0,2,2v12s0,2-2,2h-20s-2,0-2-2v-12s0-2,2-2"/>
    <path class="cls-5" d="M664.79,344.89h-1.17l-4.75-7.56h-.05c.01.2.03.43.04.69.02.25.03.53.04.82.01.29.02.58.02.88v5.17h-.94v-9h1.16l4.73,7.53h.04c0-.14-.02-.35-.03-.61-.01-.27-.02-.55-.04-.86,0-.31-.01-.59-.01-.86v-5.21h.95v9Z"/>
    <path class="cls-5" d="M673.98,344.89h-1.17l-4.75-7.56h-.05c.01.2.03.43.04.69.02.25.03.53.04.82.01.29.02.58.02.88v5.17h-.94v-9h1.16l4.73,7.53h.04c0-.14-.02-.35-.03-.61-.01-.27-.02-.55-.04-.86,0-.31-.01-.59-.01-.86v-5.21h.95v9Z"/>
    <text class="cls-6" transform="translate(616.93 345.14)"><tspan x="0" y="0">TEXT</tspan></text>
    <rect class="cls-1" x="748.07" y="359.45" width="233.4" height="32"/>
    <text class="cls-10" transform="translate(758.07 378.7)"><tspan x="0" y="0">Hubs</tspan></text>
    <rect class="cls-3" x="748.07" y="391.45" width="233.4" height="32"/>
    <text class="cls-7" transform="translate(758.07 410.7)"><tspan x="0" y="0">HubID</tspan></text>
    <path class="cls-5" d="M809.28,401.68c1.63,0,2.95,1.32,2.95,2.95s-1.32,2.95-2.95,2.95c-.39,0-.76-.08-1.1-.21l-.87.87h-.66v.98h-.98v.98h-1.97v-1.97l2.75-2.75c-.08-.28-.13-.57-.13-.86,0-1.63,1.32-2.95,2.95-2.95ZM809.28,400.7c-2.17,0-3.94,1.76-3.94,3.94,0,.18.01.36.04.54l-2.52,2.52c-.09.09-.14.22-.14.35v2.66c0,.27.22.49.49.49h2.95c.27,0,.49-.22.49-.49v-.49h.49c.27,0,.49-.22.49-.49v-.41l.82-.82c.27.06.54.09.82.09,2.17,0,3.94-1.76,3.94-3.94s-1.76-3.94-3.94-3.94ZM809.28,403.65c0,.54.44.98.98.98s.98-.44.98-.98-.44-.98-.98-.98-.98.44-.98.98Z"/>
    <text class="cls-6" transform="translate(912.51 410.7)"><tspan x="0" y="0">INTEGER</tspan></text>
    <rect class="cls-3" x="748.07" y="423.45" width="233.4" height="32"/>
    <text class="cls-7" transform="translate(758.07 442.7)"><tspan x="0" y="0">Location</tspan></text>
    <path class="cls-4" d="M949.47,429.95h20s2,0,2,2v12s0,2-2,2h-20s-2,0-2-2v-12s0-2,2-2"/>
    <path class="cls-5" d="M958.28,442.45h-1.17l-4.75-7.56h-.05c.01.2.03.43.04.69.02.25.03.53.04.82.01.29.02.58.02.88v5.17h-.94v-9h1.16l4.73,7.53h.04c0-.14-.02-.35-.03-.61-.01-.27-.02-.55-.04-.86,0-.31-.01-.59-.01-.86v-5.21h.95v9Z"/>
    <path class="cls-5" d="M967.47,442.45h-1.17l-4.75-7.56h-.05c.01.2.03.43.04.69.02.25.03.53.04.82.01.29.02.58.02.88v5.17h-.94v-9h1.16l4.73,7.53h.04c0-.14-.02-.35-.03-.61-.01-.27-.02-.55-.04-.86,0-.31-.01-.59-.01-.86v-5.21h.95v9Z"/>
    <text class="cls-6" transform="translate(910.41 442.7)"><tspan x="0" y="0">TEXT</tspan></text>
    <rect class="cls-3" x="748.07" y="455.45" width="233.4" height="32"/>
    <text class="cls-7" transform="translate(758.07 474.7)"><tspan x="0" y="0">State</tspan></text>
    <path class="cls-4" d="M949.47,461.95h20s2,0,2,2v12s0,2-2,2h-20s-2,0-2-2v-12s0-2,2-2"/>
    <path class="cls-5" d="M958.28,474.45h-1.17l-4.75-7.56h-.05c.01.2.03.43.04.69.02.25.03.53.04.82.01.29.02.58.02.88v5.17h-.94v-9h1.16l4.73,7.53h.04c0-.14-.02-.35-.03-.61-.01-.27-.02-.55-.04-.86,0-.31-.01-.59-.01-.86v-5.21h.95v9Z"/>
    <path class="cls-5" d="M967.47,474.45h-1.17l-4.75-7.56h-.05c.01.2.03.43.04.69.02.25.03.53.04.82.01.29.02.58.02.88v5.17h-.94v-9h1.16l4.73,7.53h.04c0-.14-.02-.35-.03-.61-.01-.27-.02-.55-.04-.86,0-.31-.01-.59-.01-.86v-5.21h.95v9Z"/>
    <text class="cls-6" transform="translate(910.41 474.7)"><tspan x="0" y="0">TEXT</tspan></text>
    <rect class="cls-3" x="748.07" y="487.45" width="233.4" height="32"/>
    <text class="cls-7" transform="translate(758.07 506.7)"><tspan x="0" y="0">PIN</tspan></text>
    <path class="cls-4" d="M949.47,493.95h20s2,0,2,2v12s0,2-2,2h-20s-2,0-2-2v-12s0-2,2-2"/>
    <path class="cls-5" d="M958.28,506.45h-1.17l-4.75-7.56h-.05c.01.2.03.43.04.69.02.25.03.53.04.82.01.29.02.58.02.88v5.17h-.94v-9h1.16l4.73,7.53h.04c0-.14-.02-.35-.03-.61-.01-.27-.02-.55-.04-.86,0-.31-.01-.59-.01-.86v-5.21h.95v9Z"/>
    <path class="cls-5" d="M967.47,506.45h-1.17l-4.75-7.56h-.05c.01.2.03.43.04.69.02.25.03.53.04.82.01.29.02.58.02.88v5.17h-.94v-9h1.16l4.73,7.53h.04c0-.14-.02-.35-.03-.61-.01-.27-.02-.55-.04-.86,0-.31-.01-.59-.01-.86v-5.21h.95v9Z"/>
    <text class="cls-6" transform="translate(918.89 506.7)"><tspan x="0" y="0">INT</tspan></text>
    <rect class="cls-3" x="748.07" y="519.45" width="233.4" height="32"/>
    <text class="cls-7" transform="translate(758.07 538.7)"><tspan x="0" y="0">Capacity</tspan></text>
    <path class="cls-4" d="M949.47,525.95h20s2,0,2,2v12s0,2-2,2h-20s-2,0-2-2v-12s0-2,2-2"/>
    <path class="cls-5" d="M958.28,538.45h-1.17l-4.75-7.56h-.05c.01.2.03.43.04.69.02.25.03.53.04.82.01.29.02.58.02.88v5.17h-.94v-9h1.16l4.73,7.53h.04c0-.14-.02-.35-.03-.61-.01-.27-.02-.55-.04-.86,0-.31-.01-.59-.01-.86v-5.21h.95v9Z"/>
    <path class="cls-5" d="M967.47,538.45h-1.17l-4.75-7.56h-.05c.01.2.03.43.04.69.02.25.03.53.04.82.01.29.02.58.02.88v5.17h-.94v-9h1.16l4.73,7.53h.04c0-.14-.02-.35-.03-.61-.01-.27-.02-.55-.04-.86,0-.31-.01-.59-.01-.86v-5.21h.95v9Z"/>
    <text class="cls-6" transform="translate(886.97 538.7)"><tspan x="0" y="0">INTEGER</tspan></text>
    <rect class="cls-3" x="748.07" y="551.45" width="233.4" height="32"/>
    <text class="cls-7" transform="translate(758.07 570.7)"><tspan x="0" y="0">ContactNumber</tspan></text>
    <path class="cls-4" d="M949.47,557.95h20s2,0,2,2v12s0,2-2,2h-20s-2,0-2-2v-12s0-2,2-2"/>
    <path class="cls-5" d="M958.28,570.45h-1.17l-4.75-7.56h-.05c.01.2.03.43.04.69.02.25.03.53.04.82.01.29.02.58.02.88v5.17h-.94v-9h1.16l4.73,7.53h.04c0-.14-.02-.35-.03-.61-.01-.27-.02-.55-.04-.86,0-.31-.01-.59-.01-.86v-5.21h.95v9Z"/>
    <path class="cls-5" d="M967.47,570.45h-1.17l-4.75-7.56h-.05c.01.2.03.43.04.69.02.25.03.53.04.82.01.29.02.58.02.88v5.17h-.94v-9h1.16l4.73,7.53h.04c0-.14-.02-.35-.03-.61-.01-.27-.02-.55-.04-.86,0-.31-.01-.59-.01-.86v-5.21h.95v9Z"/>
    <text class="cls-6" transform="translate(910.41 570.7)"><tspan x="0" y="0">TEXT</tspan></text>
    <rect class="cls-1" x="1069.31" y="133.89" width="239.35" height="32"/>
    <text class="cls-10" transform="translate(1079.31 153.14)"><tspan x="0" y="0">Routes</tspan></text>
    <rect class="cls-3" x="1069.31" y="165.89" width="239.35" height="32"/>
    <text class="cls-7" transform="translate(1079.31 185.14)"><tspan x="0" y="0">RouteID</tspan></text>
    <path class="cls-5" d="M1145.3,176.13c1.63,0,2.95,1.32,2.95,2.95s-1.32,2.95-2.95,2.95c-.39,0-.76-.08-1.1-.21l-.87.87h-.66v.98h-.98v.98h-1.97v-1.97l2.75-2.75c-.08-.28-.13-.57-.13-.86,0-1.63,1.32-2.95,2.95-2.95ZM1145.3,175.14c-2.17,0-3.94,1.76-3.94,3.94,0,.18.01.36.04.54l-2.52,2.52c-.09.09-.14.22-.14.35v2.66c0,.27.22.49.49.49h2.95c.27,0,.49-.22.49-.49v-.49h.49c.27,0,.49-.22.49-.49v-.41l.82-.82c.27.06.54.09.82.09,2.17,0,3.94-1.76,3.94-3.94s-1.76-3.94-3.94-3.94ZM1145.3,178.09c0,.54.44.98.98.98s.98-.44.98-.98-.44-.98-.98-.98-.98.44-.98.98Z"/>
    <text class="cls-6" transform="translate(1239.7 185.14)"><tspan x="0" y="0">INTEGER</tspan></text>
    <rect class="cls-3" x="1069.31" y="197.89" width="239.35" height="32"/>
    <text class="cls-7" transform="translate(1079.31 217.14)"><tspan x="0" y="0">DeparturePoint</tspan></text>
    <path class="cls-4" d="M1276.66,204.39h20s2,0,2,2v12s0,2-2,2h-20s-2,0-2-2v-12s0-2,2-2"/>
    <path class="cls-5" d="M1285.47,216.89h-1.17l-4.75-7.56h-.05c.01.2.03.43.04.69.02.25.03.53.04.82.01.29.02.58.02.88v5.17h-.94v-9h1.16l4.73,7.53h.04c0-.14-.02-.35-.03-.61-.01-.27-.02-.55-.04-.86,0-.31-.01-.59-.01-.86v-5.21h.95v9Z"/>
    <path class="cls-5" d="M1294.66,216.89h-1.17l-4.75-7.56h-.05c.01.2.03.43.04.69.02.25.03.53.04.82.01.29.02.58.02.88v5.17h-.94v-9h1.16l4.73,7.53h.04c0-.14-.02-.35-.03-.61-.01-.27-.02-.55-.04-.86,0-.31-.01-.59-.01-.86v-5.21h.95v9Z"/>
    <text class="cls-6" transform="translate(1237.61 217.14)"><tspan x="0" y="0">TEXT</tspan></text>
    <rect class="cls-3" x="1069.31" y="229.89" width="239.35" height="32"/>
    <text class="cls-7" transform="translate(1079.31 249.14)"><tspan x="0" y="0">DestinationPoint</tspan></text>
    <path class="cls-4" d="M1276.66,236.39h20s2,0,2,2v12s0,2-2,2h-20s-2,0-2-2v-12s0-2,2-2"/>
    <path class="cls-5" d="M1285.47,248.89h-1.17l-4.75-7.56h-.05c.01.2.03.43.04.69.02.25.03.53.04.82.01.29.02.58.02.88v5.17h-.94v-9h1.16l4.73,7.53h.04c0-.14-.02-.35-.03-.61-.01-.27-.02-.55-.04-.86,0-.31-.01-.59-.01-.86v-5.21h.95v9Z"/>
    <path class="cls-5" d="M1294.66,248.89h-1.17l-4.75-7.56h-.05c.01.2.03.43.04.69.02.25.03.53.04.82.01.29.02.58.02.88v5.17h-.94v-9h1.16l4.73,7.53h.04c0-.14-.02-.35-.03-.61-.01-.27-.02-.55-.04-.86,0-.31-.01-.59-.01-.86v-5.21h.95v9Z"/>
    <text class="cls-6" transform="translate(1237.61 249.14)"><tspan x="0" y="0">TEXT</tspan></text>
    <rect class="cls-3" x="1069.31" y="261.89" width="239.35" height="32"/>
    <text class="cls-7" transform="translate(1079.31 281.14)"><tspan x="0" y="0">Mode</tspan></text>
    <path class="cls-4" d="M1276.66,268.39h20s2,0,2,2v12s0,2-2,2h-20s-2,0-2-2v-12s0-2,2-2"/>
    <path class="cls-5" d="M1285.47,280.89h-1.17l-4.75-7.56h-.05c.01.2.03.43.04.69.02.25.03.53.04.82.01.29.02.58.02.88v5.17h-.94v-9h1.16l4.73,7.53h.04c0-.14-.02-.35-.03-.61-.01-.27-.02-.55-.04-.86,0-.31-.01-.59-.01-.86v-5.21h.95v9Z"/>
    <path class="cls-5" d="M1294.66,280.89h-1.17l-4.75-7.56h-.05c.01.2.03.43.04.69.02.25.03.53.04.82.01.29.02.58.02.88v5.17h-.94v-9h1.16l4.73,7.53h.04c0-.14-.02-.35-.03-.61-.01-.27-.02-.55-.04-.86,0-.31-.01-.59-.01-.86v-5.21h.95v9Z"/>
    <text class="cls-6" transform="translate(1237.61 281.14)"><tspan x="0" y="0">TEXT</tspan></text>
    <rect class="cls-3" x="1069.31" y="293.89" width="239.35" height="32"/>
    <text class="cls-7" transform="translate(1079.31 313.14)"><tspan x="0" y="0">EDA</tspan></text>
    <path class="cls-4" d="M1276.66,300.39h20s2,0,2,2v12s0,2-2,2h-20s-2,0-2-2v-12s0-2,2-2"/>
    <path class="cls-5" d="M1285.47,312.89h-1.17l-4.75-7.56h-.05c.01.2.03.43.04.69.02.25.03.53.04.82.01.29.02.58.02.88v5.17h-.94v-9h1.16l4.73,7.53h.04c0-.14-.02-.35-.03-.61-.01-.27-.02-.55-.04-.86,0-.31-.01-.59-.01-.86v-5.21h.95v9Z"/>
    <path class="cls-5" d="M1294.66,312.89h-1.17l-4.75-7.56h-.05c.01.2.03.43.04.69.02.25.03.53.04.82.01.29.02.58.02.88v5.17h-.94v-9h1.16l4.73,7.53h.04c0-.14-.02-.35-.03-.61-.01-.27-.02-.55-.04-.86,0-.31-.01-.59-.01-.86v-5.21h.95v9Z"/>
    <text class="cls-6" transform="translate(1237.61 313.14)"><tspan x="0" y="0">TEXT</tspan></text>
    <rect class="cls-1" x="1049.09" y="407.89" width="251.8" height="32"/>
    <text class="cls-10" transform="translate(1059.09 427.14)"><tspan x="0" y="0">DeliveryPersons</tspan></text>
    <rect class="cls-3" x="1049.09" y="439.89" width="251.8" height="32"/>
    <text class="cls-7" transform="translate(1059.09 459.14)"><tspan x="0" y="0">DeliveryPersonID</tspan></text>
    <path class="cls-5" d="M1191.73,450.13c1.63,0,2.95,1.32,2.95,2.95s-1.32,2.95-2.95,2.95c-.39,0-.76-.08-1.1-.21l-.87.87h-.66v.98h-.98v.98h-1.97v-1.97l2.75-2.75c-.08-.28-.13-.57-.13-.86,0-1.63,1.32-2.95,2.95-2.95ZM1191.73,449.14c-2.17,0-3.94,1.76-3.94,3.94,0,.18.01.36.04.54l-2.52,2.52c-.09.09-.14.22-.14.35v2.66c0,.27.22.49.49.49h2.95c.27,0,.49-.22.49-.49v-.49h.49c.27,0,.49-.22.49-.49v-.41l.82-.82c.27.06.54.09.82.09,2.17,0,3.94-1.76,3.94-3.94s-1.76-3.94-3.94-3.94ZM1191.73,452.09c0,.54.44.98.98.98s.98-.44.98-.98-.44-.98-.98-.98-.98.44-.98.98Z"/>
    <text class="cls-6" transform="translate(1231.93 459.14)"><tspan x="0" y="0">INTEGER</tspan></text>
    <rect class="cls-3" x="1049.09" y="471.89" width="251.8" height="32"/>
    <text class="cls-7" transform="translate(1059.09 491.14)"><tspan x="0" y="0">Name</tspan></text>
    <path class="cls-4" d="M1268.88,478.39h20s2,0,2,2v12s0,2-2,2h-20s-2,0-2-2v-12s0-2,2-2"/>
    <path class="cls-5" d="M1277.7,490.89h-1.17l-4.75-7.56h-.05c.01.2.03.43.04.69.02.25.03.53.04.82.01.29.02.58.02.88v5.17h-.94v-9h1.16l4.73,7.53h.04c0-.14-.02-.35-.03-.61-.01-.27-.02-.55-.04-.86,0-.31-.01-.59-.01-.86v-5.21h.95v9Z"/>
    <path class="cls-5" d="M1286.88,490.89h-1.17l-4.75-7.56h-.05c.01.2.03.43.04.69.02.25.03.53.04.82.01.29.02.58.02.88v5.17h-.94v-9h1.16l4.73,7.53h.04c0-.14-.02-.35-.03-.61-.01-.27-.02-.55-.04-.86,0-.31-.01-.59-.01-.86v-5.21h.95v9Z"/>
    <text class="cls-6" transform="translate(1229.83 491.14)"><tspan x="0" y="0">TEXT</tspan></text>
    <rect class="cls-3" x="1049.09" y="503.89" width="251.8" height="32"/>
    <text class="cls-7" transform="translate(1059.09 523.14)"><tspan x="0" y="0">ContactNumber</tspan></text>
    <path class="cls-4" d="M1268.88,510.39h20s2,0,2,2v12s0,2-2,2h-20s-2,0-2-2v-12s0-2,2-2"/>
    <path class="cls-5" d="M1277.7,522.89h-1.17l-4.75-7.56h-.05c.01.2.03.43.04.69.02.25.03.53.04.82.01.29.02.58.02.88v5.17h-.94v-9h1.16l4.73,7.53h.04c0-.14-.02-.35-.03-.61-.01-.27-.02-.55-.04-.86,0-.31-.01-.59-.01-.86v-5.21h.95v9Z"/>
    <path class="cls-5" d="M1286.88,522.89h-1.17l-4.75-7.56h-.05c.01.2.03.43.04.69.02.25.03.53.04.82.01.29.02.58.02.88v5.17h-.94v-9h1.16l4.73,7.53h.04c0-.14-.02-.35-.03-.61-.01-.27-.02-.55-.04-.86,0-.31-.01-.59-.01-.86v-5.21h.95v9Z"/>
    <text class="cls-6" transform="translate(1229.83 523.14)"><tspan x="0" y="0">TEXT</tspan></text>
    <rect class="cls-3" x="1049.09" y="535.89" width="251.8" height="32"/>
    <text class="cls-7" transform="translate(1059.09 555.14)"><tspan x="0" y="0">Address</tspan></text>
    <path class="cls-4" d="M1268.88,542.39h20s2,0,2,2v12s0,2-2,2h-20s-2,0-2-2v-12s0-2,2-2"/>
    <path class="cls-5" d="M1277.7,554.89h-1.17l-4.75-7.56h-.05c.01.2.03.43.04.69.02.25.03.53.04.82.01.29.02.58.02.88v5.17h-.94v-9h1.16l4.73,7.53h.04c0-.14-.02-.35-.03-.61-.01-.27-.02-.55-.04-.86,0-.31-.01-.59-.01-.86v-5.21h.95v9Z"/>
    <path class="cls-5" d="M1286.88,554.89h-1.17l-4.75-7.56h-.05c.01.2.03.43.04.69.02.25.03.53.04.82.01.29.02.58.02.88v5.17h-.94v-9h1.16l4.73,7.53h.04c0-.14-.02-.35-.03-.61-.01-.27-.02-.55-.04-.86,0-.31-.01-.59-.01-.86v-5.21h.95v9Z"/>
    <text class="cls-6" transform="translate(1229.83 555.14)"><tspan x="0" y="0">TEXT</tspan></text>
    <rect class="cls-3" x="1049.09" y="567.89" width="251.8" height="32"/>
    <text class="cls-7" transform="translate(1059.09 587.14)"><tspan x="0" y="0">HubID</tspan></text>
    <text class="cls-6" transform="translate(1234.38 587.14)"><tspan x="0" y="0">INTEGER</tspan></text>
    <rect class="cls-1" x="457.96" y="628.68" width="205.4" height="32"/>
    <text class="cls-10" transform="translate(467.96 647.93)"><tspan x="0" y="0">Staff</tspan></text>
    <rect class="cls-3" x="457.96" y="660.68" width="205.4" height="32"/>
    <text class="cls-7" transform="translate(467.96 679.93)"><tspan x="0" y="0">StaffID</tspan></text>
    <path class="cls-5" d="M531.16,670.92c1.63,0,2.95,1.32,2.95,2.95s-1.32,2.95-2.95,2.95c-.39,0-.76-.08-1.1-.21l-.87.87h-.66v.98h-.98v.98h-1.97v-1.97l2.75-2.75c-.08-.28-.13-.57-.13-.86,0-1.63,1.32-2.95,2.95-2.95ZM531.16,669.93c-2.17,0-3.94,1.76-3.94,3.94,0,.18.01.36.04.54l-2.52,2.52c-.09.09-.14.22-.14.35v2.66c0,.27.22.49.49.49h2.95c.27,0,.49-.22.49-.49v-.49h.49c.27,0,.49-.22.49-.49v-.41l.82-.82c.27.06.54.09.82.09,2.17,0,3.94-1.76,3.94-3.94s-1.76-3.94-3.94-3.94ZM531.16,672.88c0,.54.44.98.98.98s.98-.44.98-.98-.44-.98-.98-.98-.98.44-.98.98Z"/>
    <text class="cls-6" transform="translate(594.39 679.93)"><tspan x="0" y="0">INTEGER</tspan></text>
    <rect class="cls-3" x="457.96" y="692.68" width="205.4" height="32"/>
    <text class="cls-7" transform="translate(467.96 711.93)"><tspan x="0" y="0">Name</tspan></text>
    <text class="cls-6" transform="translate(620.3 711.93)"><tspan x="0" y="0">TEXT</tspan></text>
    <rect class="cls-3" x="457.96" y="724.68" width="205.4" height="32"/>
    <text class="cls-7" transform="translate(467.96 743.93)"><tspan x="0" y="0">Address</tspan></text>
    <text class="cls-6" transform="translate(620.3 743.93)"><tspan x="0" y="0">TEXT</tspan></text>
    <rect class="cls-3" x="457.96" y="756.68" width="205.4" height="32"/>
    <text class="cls-7" transform="translate(467.96 775.93)"><tspan x="0" y="0">ContactNumber</tspan></text>
    <text class="cls-6" transform="translate(620.3 775.93)"><tspan x="0" y="0">TEXT</tspan></text>
    <rect class="cls-3" x="457.96" y="788.68" width="205.4" height="32"/>
    <text class="cls-7" transform="translate(467.96 807.93)"><tspan x="0" y="0">HubID</tspan></text>
    <text class="cls-6" transform="translate(596.85 807.93)"><tspan x="0" y="0">INTEGER</tspan></text>
    <rect class="cls-1" x="745.36" y="133.89" width="233.4" height="32"/>
    <text class="cls-10" transform="translate(755.36 153.14)"><tspan x="0" y="0">Managers</tspan></text>
    <rect class="cls-3" x="745.36" y="165.89" width="233.4" height="32"/>
    <text class="cls-7" transform="translate(755.36 185.14)"><tspan x="0" y="0">ManagerID</tspan></text>
    <path class="cls-5" d="M837.28,176.13c1.63,0,2.95,1.32,2.95,2.95s-1.32,2.95-2.95,2.95c-.39,0-.76-.08-1.1-.21l-.87.87h-.66v.98h-.98v.98h-1.97v-1.97l2.75-2.75c-.08-.28-.13-.57-.13-.86,0-1.63,1.32-2.95,2.95-2.95ZM837.28,175.14c-2.17,0-3.94,1.76-3.94,3.94,0,.18.01.36.04.54l-2.52,2.52c-.09.09-.14.22-.14.35v2.66c0,.27.22.49.49.49h2.95c.27,0,.49-.22.49-.49v-.49h.49c.27,0,.49-.22.49-.49v-.41l.82-.82c.27.06.54.09.82.09,2.17,0,3.94-1.76,3.94-3.94s-1.76-3.94-3.94-3.94ZM837.28,178.09c0,.54.44.98.98.98s.98-.44.98-.98-.44-.98-.98-.98-.98.44-.98.98Z"/>
    <text class="cls-6" transform="translate(909.8 185.14)"><tspan x="0" y="0">INTEGER</tspan></text>
    <rect class="cls-3" x="745.36" y="197.89" width="233.4" height="32"/>
    <text class="cls-7" transform="translate(755.36 217.14)"><tspan x="0" y="0">Name</tspan></text>
    <path class="cls-4" d="M946.76,204.39h20s2,0,2,2v12s0,2-2,2h-20s-2,0-2-2v-12s0-2,2-2"/>
    <path class="cls-5" d="M955.57,216.89h-1.17l-4.75-7.56h-.05c.01.2.03.43.04.69.02.25.03.53.04.82.01.29.02.58.02.88v5.17h-.94v-9h1.16l4.73,7.53h.04c0-.14-.02-.35-.03-.61-.01-.27-.02-.55-.04-.86,0-.31-.01-.59-.01-.86v-5.21h.95v9Z"/>
    <path class="cls-5" d="M964.76,216.89h-1.17l-4.75-7.56h-.05c.01.2.03.43.04.69.02.25.03.53.04.82.01.29.02.58.02.88v5.17h-.94v-9h1.16l4.73,7.53h.04c0-.14-.02-.35-.03-.61-.01-.27-.02-.55-.04-.86,0-.31-.01-.59-.01-.86v-5.21h.95v9Z"/>
    <text class="cls-6" transform="translate(907.7 217.14)"><tspan x="0" y="0">TEXT</tspan></text>
    <rect class="cls-3" x="745.36" y="229.89" width="233.4" height="32"/>
    <text class="cls-7" transform="translate(755.36 249.14)"><tspan x="0" y="0">Address</tspan></text>
    <path class="cls-4" d="M946.76,236.39h20s2,0,2,2v12s0,2-2,2h-20s-2,0-2-2v-12s0-2,2-2"/>
    <path class="cls-5" d="M955.57,248.89h-1.17l-4.75-7.56h-.05c.01.2.03.43.04.69.02.25.03.53.04.82.01.29.02.58.02.88v5.17h-.94v-9h1.16l4.73,7.53h.04c0-.14-.02-.35-.03-.61-.01-.27-.02-.55-.04-.86,0-.31-.01-.59-.01-.86v-5.21h.95v9Z"/>
    <path class="cls-5" d="M964.76,248.89h-1.17l-4.75-7.56h-.05c.01.2.03.43.04.69.02.25.03.53.04.82.01.29.02.58.02.88v5.17h-.94v-9h1.16l4.73,7.53h.04c0-.14-.02-.35-.03-.61-.01-.27-.02-.55-.04-.86,0-.31-.01-.59-.01-.86v-5.21h.95v9Z"/>
    <text class="cls-6" transform="translate(907.7 249.14)"><tspan x="0" y="0">TEXT</tspan></text>
    <rect class="cls-3" x="745.36" y="261.89" width="233.4" height="32"/>
    <text class="cls-7" transform="translate(755.36 281.14)"><tspan x="0" y="0">ContactNumber</tspan></text>
    <path class="cls-4" d="M946.76,268.39h20s2,0,2,2v12s0,2-2,2h-20s-2,0-2-2v-12s0-2,2-2"/>
    <path class="cls-5" d="M955.57,280.89h-1.17l-4.75-7.56h-.05c.01.2.03.43.04.69.02.25.03.53.04.82.01.29.02.58.02.88v5.17h-.94v-9h1.16l4.73,7.53h.04c0-.14-.02-.35-.03-.61-.01-.27-.02-.55-.04-.86,0-.31-.01-.59-.01-.86v-5.21h.95v9Z"/>
    <path class="cls-5" d="M964.76,280.89h-1.17l-4.75-7.56h-.05c.01.2.03.43.04.69.02.25.03.53.04.82.01.29.02.58.02.88v5.17h-.94v-9h1.16l4.73,7.53h.04c0-.14-.02-.35-.03-.61-.01-.27-.02-.55-.04-.86,0-.31-.01-.59-.01-.86v-5.21h.95v9Z"/>
    <text class="cls-6" transform="translate(907.7 281.14)"><tspan x="0" y="0">TEXT</tspan></text>
    <rect class="cls-3" x="745.36" y="293.89" width="233.4" height="32"/>
    <text class="cls-7" transform="translate(755.36 313.14)"><tspan x="0" y="0">HubID</tspan></text>
    <text class="cls-6" transform="translate(912.25 313.14)"><tspan x="0" y="0">INTEGER</tspan></text>
    <rect class="cls-1" x="898.17" y="644.68" width="233.4" height="32"/>
    <text class="cls-10" transform="translate(908.17 663.93)"><tspan x="0" y="0">Buyers</tspan></text>
    <rect class="cls-3" x="898.17" y="676.68" width="233.4" height="32"/>
    <text class="cls-7" transform="translate(908.17 695.93)"><tspan x="0" y="0">BuyerID</tspan></text>
    <path class="cls-5" d="M972.91,686.92c1.63,0,2.95,1.32,2.95,2.95s-1.32,2.95-2.95,2.95c-.39,0-.76-.08-1.1-.21l-.87.87h-.66v.98h-.98v.98h-1.97v-1.97l2.75-2.75c-.08-.28-.13-.57-.13-.86,0-1.63,1.32-2.95,2.95-2.95ZM972.91,685.93c-2.17,0-3.94,1.76-3.94,3.94,0,.18.01.36.04.54l-2.52,2.52c-.09.09-.14.22-.14.35v2.66c0,.27.22.49.49.49h2.95c.27,0,.49-.22.49-.49v-.49h.49c.27,0,.49-.22.49-.49v-.41l.82-.82c.27.06.54.09.82.09,2.17,0,3.94-1.76,3.94-3.94s-1.76-3.94-3.94-3.94ZM972.91,688.88c0,.54.44.98.98.98s.98-.44.98-.98-.44-.98-.98-.98-.98.44-.98.98Z"/>
    <text class="cls-6" transform="translate(1062.6 695.93)"><tspan x="0" y="0">INTEGER</tspan></text>
    <rect class="cls-3" x="898.17" y="708.68" width="233.4" height="32"/>
    <text class="cls-7" transform="translate(908.17 727.93)"><tspan x="0" y="0">Name</tspan></text>
    <path class="cls-4" d="M1099.56,715.18h20s2,0,2,2v12s0,2-2,2h-20s-2,0-2-2v-12s0-2,2-2"/>
    <path class="cls-5" d="M1108.37,727.68h-1.17l-4.75-7.56h-.05c.01.2.03.43.04.69.02.25.03.53.04.82.01.29.02.58.02.88v5.17h-.94v-9h1.16l4.73,7.53h.04c0-.14-.02-.35-.03-.61-.01-.27-.02-.55-.04-.86,0-.31-.01-.59-.01-.86v-5.21h.95v9Z"/>
    <path class="cls-5" d="M1117.56,727.68h-1.17l-4.75-7.56h-.05c.01.2.03.43.04.69.02.25.03.53.04.82.01.29.02.58.02.88v5.17h-.94v-9h1.16l4.73,7.53h.04c0-.14-.02-.35-.03-.61-.01-.27-.02-.55-.04-.86,0-.31-.01-.59-.01-.86v-5.21h.95v9Z"/>
    <text class="cls-6" transform="translate(1060.51 727.93)"><tspan x="0" y="0">TEXT</tspan></text>
    <rect class="cls-3" x="898.17" y="740.68" width="233.4" height="32"/>
    <text class="cls-7" transform="translate(908.17 759.93)"><tspan x="0" y="0">Address</tspan></text>
    <path class="cls-4" d="M1099.56,747.18h20s2,0,2,2v12s0,2-2,2h-20s-2,0-2-2v-12s0-2,2-2"/>
    <path class="cls-5" d="M1108.37,759.68h-1.17l-4.75-7.56h-.05c.01.2.03.43.04.69.02.25.03.53.04.82.01.29.02.58.02.88v5.17h-.94v-9h1.16l4.73,7.53h.04c0-.14-.02-.35-.03-.61-.01-.27-.02-.55-.04-.86,0-.31-.01-.59-.01-.86v-5.21h.95v9Z"/>
    <path class="cls-5" d="M1117.56,759.68h-1.17l-4.75-7.56h-.05c.01.2.03.43.04.69.02.25.03.53.04.82.01.29.02.58.02.88v5.17h-.94v-9h1.16l4.73,7.53h.04c0-.14-.02-.35-.03-.61-.01-.27-.02-.55-.04-.86,0-.31-.01-.59-.01-.86v-5.21h.95v9Z"/>
    <text class="cls-6" transform="translate(1060.51 759.93)"><tspan x="0" y="0">TEXT</tspan></text>
    <rect class="cls-3" x="898.17" y="772.68" width="233.4" height="32"/>
    <text class="cls-7" transform="translate(908.17 791.93)"><tspan x="0" y="0">ContactNumber</tspan></text>
    <path class="cls-4" d="M1099.56,779.18h20s2,0,2,2v12s0,2-2,2h-20s-2,0-2-2v-12s0-2,2-2"/>
    <path class="cls-5" d="M1108.37,791.68h-1.17l-4.75-7.56h-.05c.01.2.03.43.04.69.02.25.03.53.04.82.01.29.02.58.02.88v5.17h-.94v-9h1.16l4.73,7.53h.04c0-.14-.02-.35-.03-.61-.01-.27-.02-.55-.04-.86,0-.31-.01-.59-.01-.86v-5.21h.95v9Z"/>
    <path class="cls-5" d="M1117.56,791.68h-1.17l-4.75-7.56h-.05c.01.2.03.43.04.69.02.25.03.53.04.82.01.29.02.58.02.88v5.17h-.94v-9h1.16l4.73,7.53h.04c0-.14-.02-.35-.03-.61-.01-.27-.02-.55-.04-.86,0-.31-.01-.59-.01-.86v-5.21h.95v9Z"/>
    <text class="cls-6" transform="translate(1060.51 791.93)"><tspan x="0" y="0">TEXT</tspan></text>
    <rect class="cls-1" x="78.56" y="413.22" width="241.58" height="32"/>
    <text class="cls-10" transform="translate(88.56 432.47)"><tspan x="0" y="0">Parcels</tspan></text>
    <rect class="cls-3" x="78.56" y="445.22" width="241.58" height="32"/>
    <text class="cls-7" transform="translate(88.56 464.47)"><tspan x="0" y="0">ParcelID</tspan></text>
    <path class="cls-5" d="M158.55,455.45c1.63,0,2.95,1.32,2.95,2.95s-1.32,2.95-2.95,2.95c-.39,0-.76-.08-1.1-.21l-.87.87h-.66v.98h-.98v.98h-1.97v-1.97l2.75-2.75c-.08-.28-.13-.57-.13-.86,0-1.63,1.32-2.95,2.95-2.95ZM158.55,454.47c-2.17,0-3.94,1.76-3.94,3.94,0,.18.01.36.04.54l-2.52,2.52c-.09.09-.14.22-.14.35v2.66c0,.27.22.49.49.49h2.95c.27,0,.49-.22.49-.49v-.49h.49c.27,0,.49-.22.49-.49v-.41l.82-.82c.27.06.54.09.82.09,2.17,0,3.94-1.76,3.94-3.94s-1.76-3.94-3.94-3.94ZM158.55,457.42c0,.54.44.98.98.98s.98-.44.98-.98-.44-.98-.98-.98-.98.44-.98.98Z"/>
    <text class="cls-6" transform="translate(251.18 464.47)"><tspan x="0" y="0">INTEGER</tspan></text>
    <rect class="cls-3" x="78.56" y="477.22" width="241.58" height="32"/>
    <text class="cls-7" transform="translate(88.56 496.47)"><tspan x="0" y="0">CustomerID</tspan></text>
    <text class="cls-6" transform="translate(253.64 496.47)"><tspan x="0" y="0">INTEGER</tspan></text>
    <rect class="cls-3" x="78.56" y="509.22" width="241.58" height="32"/>
    <text class="cls-7" transform="translate(88.56 528.47)"><tspan x="0" y="0">SellerID</tspan></text>
    <text class="cls-6" transform="translate(253.64 528.47)"><tspan x="0" y="0">INTEGER</tspan></text>
    <rect class="cls-3" x="78.56" y="541.22" width="241.58" height="32"/>
    <text class="cls-7" transform="translate(88.56 560.47)"><tspan x="0" y="0">SourceHubID</tspan></text>
    <text class="cls-6" transform="translate(253.64 560.47)"><tspan x="0" y="0">INTEGER</tspan></text>
    <rect class="cls-3" x="78.56" y="573.22" width="241.58" height="32"/>
    <text class="cls-7" transform="translate(88.56 592.47)"><tspan x="0" y="0">DestinationHubID</tspan></text>
    <text class="cls-6" transform="translate(253.64 592.47)"><tspan x="0" y="0">INTEGER</tspan></text>
    <rect class="cls-3" x="78.56" y="605.22" width="241.58" height="32"/>
    <text class="cls-7" transform="translate(88.56 624.47)"><tspan x="0" y="0">BuyerID</tspan></text>
    <text class="cls-6" transform="translate(285.56 624.47)"><tspan x="0" y="0">INT</tspan></text>
    <rect class="cls-3" x="78.56" y="637.22" width="241.58" height="32"/>
    <text class="cls-7" transform="translate(88.56 656.47)"><tspan x="0" y="0">TrackingNumber</tspan></text>
    <text class="cls-6" transform="translate(277.09 656.47)"><tspan x="0" y="0">TEXT</tspan></text>
    <rect class="cls-3" x="78.56" y="669.22" width="241.58" height="32"/>
    <text class="cls-7" transform="translate(88.56 688.47)"><tspan x="0" y="0">RouteID</tspan></text>
    <text class="cls-6" transform="translate(285.56 688.47)"><tspan x="0" y="0">INT</tspan></text>
    <rect class="cls-3" x="78.56" y="701.22" width="241.58" height="32"/>
    <text class="cls-7" transform="translate(88.56 720.47)"><tspan x="0" y="0">Size</tspan></text>
    <path class="cls-4" d="M288.14,707.72h20s2,0,2,2v12s0,2-2,2h-20s-2,0-2-2v-12s0-2,2-2"/>
    <path class="cls-5" d="M296.95,720.22h-1.17l-4.75-7.56h-.05c.01.2.03.43.04.69.02.25.03.53.04.82.01.29.02.58.02.88v5.17h-.94v-9h1.16l4.73,7.53h.04c0-.14-.02-.35-.03-.61-.01-.27-.02-.55-.04-.86,0-.31-.01-.59-.01-.86v-5.21h.95v9Z"/>
    <path class="cls-5" d="M306.14,720.22h-1.17l-4.75-7.56h-.05c.01.2.03.43.04.69.02.25.03.53.04.82.01.29.02.58.02.88v5.17h-.94v-9h1.16l4.73,7.53h.04c0-.14-.02-.35-.03-.61-.01-.27-.02-.55-.04-.86,0-.31-.01-.59-.01-.86v-5.21h.95v9Z"/>
    <text class="cls-6" transform="translate(249.09 720.47)"><tspan x="0" y="0">TEXT</tspan></text>
    <rect class="cls-3" x="78.56" y="733.22" width="241.58" height="32"/>
    <text class="cls-7" transform="translate(88.56 752.47)"><tspan x="0" y="0">Weight</tspan></text>
    <path class="cls-4" d="M288.14,739.72h20s2,0,2,2v12s0,2-2,2h-20s-2,0-2-2v-12s0-2,2-2"/>
    <path class="cls-5" d="M296.95,752.22h-1.17l-4.75-7.56h-.05c.01.2.03.43.04.69.02.25.03.53.04.82.01.29.02.58.02.88v5.17h-.94v-9h1.16l4.73,7.53h.04c0-.14-.02-.35-.03-.61-.01-.27-.02-.55-.04-.86,0-.31-.01-.59-.01-.86v-5.21h.95v9Z"/>
    <path class="cls-5" d="M306.14,752.22h-1.17l-4.75-7.56h-.05c.01.2.03.43.04.69.02.25.03.53.04.82.01.29.02.58.02.88v5.17h-.94v-9h1.16l4.73,7.53h.04c0-.14-.02-.35-.03-.61-.01-.27-.02-.55-.04-.86,0-.31-.01-.59-.01-.86v-5.21h.95v9Z"/>
    <text class="cls-6" transform="translate(257.56 752.47)"><tspan x="0" y="0">INT</tspan></text>
    <rect class="cls-3" x="78.56" y="765.22" width="241.58" height="32"/>
    <text class="cls-7" transform="translate(88.56 784.47)"><tspan x="0" y="0">Destination</tspan></text>
    <path class="cls-4" d="M288.14,771.72h20s2,0,2,2v12s0,2-2,2h-20s-2,0-2-2v-12s0-2,2-2"/>
    <path class="cls-5" d="M296.95,784.22h-1.17l-4.75-7.56h-.05c.01.2.03.43.04.69.02.25.03.53.04.82.01.29.02.58.02.88v5.17h-.94v-9h1.16l4.73,7.53h.04c0-.14-.02-.35-.03-.61-.01-.27-.02-.55-.04-.86,0-.31-.01-.59-.01-.86v-5.21h.95v9Z"/>
    <path class="cls-5" d="M306.14,784.22h-1.17l-4.75-7.56h-.05c.01.2.03.43.04.69.02.25.03.53.04.82.01.29.02.58.02.88v5.17h-.94v-9h1.16l4.73,7.53h.04c0-.14-.02-.35-.03-.61-.01-.27-.02-.55-.04-.86,0-.31-.01-.59-.01-.86v-5.21h.95v9Z"/>
    <text class="cls-6" transform="translate(249.09 784.47)"><tspan x="0" y="0">TEXT</tspan></text>
    <rect class="cls-3" x="78.56" y="797.22" width="241.58" height="32"/>
    <text class="cls-7" transform="translate(88.56 816.47)"><tspan x="0" y="0">Status</tspan></text>
    <path class="cls-4" d="M288.14,803.72h20s2,0,2,2v12s0,2-2,2h-20s-2,0-2-2v-12s0-2,2-2"/>
    <path class="cls-5" d="M296.95,816.22h-1.17l-4.75-7.56h-.05c.01.2.03.43.04.69.02.25.03.53.04.82.01.29.02.58.02.88v5.17h-.94v-9h1.16l4.73,7.53h.04c0-.14-.02-.35-.03-.61-.01-.27-.02-.55-.04-.86,0-.31-.01-.59-.01-.86v-5.21h.95v9Z"/>
    <path class="cls-5" d="M306.14,816.22h-1.17l-4.75-7.56h-.05c.01.2.03.43.04.69.02.25.03.53.04.82.01.29.02.58.02.88v5.17h-.94v-9h1.16l4.73,7.53h.04c0-.14-.02-.35-.03-.61-.01-.27-.02-.55-.04-.86,0-.31-.01-.59-.01-.86v-5.21h.95v9Z"/>
    <text class="cls-6" transform="translate(249.09 816.47)"><tspan x="0" y="0">TEXT</tspan></text>
    <rect class="cls-3" x="78.56" y="829.22" width="241.58" height="32"/>
    <text class="cls-7" transform="translate(88.56 848.47)"><tspan x="0" y="0">OrderDate</tspan></text>
    <path class="cls-4" d="M288.14,835.72h20s2,0,2,2v12s0,2-2,2h-20s-2,0-2-2v-12s0-2,2-2"/>
    <path class="cls-5" d="M296.95,848.22h-1.17l-4.75-7.56h-.05c.01.2.03.43.04.69.02.25.03.53.04.82.01.29.02.58.02.88v5.17h-.94v-9h1.16l4.73,7.53h.04c0-.14-.02-.35-.03-.61-.01-.27-.02-.55-.04-.86,0-.31-.01-.59-.01-.86v-5.21h.95v9Z"/>
    <path class="cls-5" d="M306.14,848.22h-1.17l-4.75-7.56h-.05c.01.2.03.43.04.69.02.25.03.53.04.82.01.29.02.58.02.88v5.17h-.94v-9h1.16l4.73,7.53h.04c0-.14-.02-.35-.03-.61-.01-.27-.02-.55-.04-.86,0-.31-.01-.59-.01-.86v-5.21h.95v9Z"/>
    <text class="cls-6" transform="translate(246.11 848.47)"><tspan x="0" y="0">DATE</tspan></text>
    <rect class="cls-3" x="78.56" y="861.22" width="241.58" height="32"/>
    <text class="cls-7" transform="translate(88.56 880.47)"><tspan x="0" y="0">DeliveryDate</tspan></text>
    <path class="cls-4" d="M288.14,867.72h20s2,0,2,2v12s0,2-2,2h-20s-2,0-2-2v-12s0-2,2-2"/>
    <path class="cls-5" d="M296.95,880.22h-1.17l-4.75-7.56h-.05c.01.2.03.43.04.69.02.25.03.53.04.82.01.29.02.58.02.88v5.17h-.94v-9h1.16l4.73,7.53h.04c0-.14-.02-.35-.03-.61-.01-.27-.02-.55-.04-.86,0-.31-.01-.59-.01-.86v-5.21h.95v9Z"/>
    <path class="cls-5" d="M306.14,880.22h-1.17l-4.75-7.56h-.05c.01.2.03.43.04.69.02.25.03.53.04.82.01.29.02.58.02.88v5.17h-.94v-9h1.16l4.73,7.53h.04c0-.14-.02-.35-.03-.61-.01-.27-.02-.55-.04-.86,0-.31-.01-.59-.01-.86v-5.21h.95v9Z"/>
    <text class="cls-6" transform="translate(246.11 880.47)"><tspan x="0" y="0">DATE</tspan></text>
  </g>
</svg>